<?xml version="1.0" encoding="UTF-8"?>
<svg id="uuid-03b5f83c-baf3-4989-a6bf-ff68ac46f1eb" data-name="Capa 1" xmlns="http://www.w3.org/2000/svg" width="160" height="160" xmlns:xlink="http://www.w3.org/1999/xlink" viewBox="0 0 160 160">
  <defs>
    <style>
      .uuid-bfddfc94-76a6-434a-b8c5-d4cc56c3bef3 {
        fill: url(#uuid-801f0bce-17ed-4b24-9688-2cf77f358ef0);
      }

      .uuid-32e3d128-8eba-4ef0-bcdf-873cc152cb33 {
        fill: none;
      }

      .uuid-7093d13d-3421-4e83-b281-7e4601f65ef4 {
        fill: #62c669;
      }

      .uuid-a32a10a7-50ca-4337-9a13-dfb587d10115 {
        fill: #ff0;
      }
    </style>
    <linearGradient id="uuid-801f0bce-17ed-4b24-9688-2cf77f358ef0" data-name="Degradado sin nombre 52" x1="78.0006" y1="79.4592" x2="81.9994" y2="79.4592" gradientUnits="userSpaceOnUse">
      <stop offset=".2661" stop-color="#62c669"/>
      <stop offset=".731" stop-color="#ff0"/>
    </linearGradient>
  </defs>
  <g>
    <path class="uuid-a32a10a7-50ca-4337-9a13-dfb587d10115" d="M80,53.2666c-3.905-5.0429-8.4717-10.9724-11.7607-16.4926,7.8089-.412,15.7208-.4177,23.5298-.0046-3.2813,5.5113-7.8632,11.4704-11.7691,16.4972h0ZM80,53.2666c2.439-5.0959,4.4429-10.8356,6.9797-15.7247,0,0,1.5742,2.7266,1.5742,2.7266-5.7026.242-11.4052.238-17.1077-.0047l1.5701-2.7195c2.5352,4.8897,4.5427,10.6277,6.9838,15.7224h0Z"/>
    <path class="uuid-7093d13d-3421-4e83-b281-7e4601f65ef4" d="M80,105.6518c-2.4409,5.0938-4.4488,10.8334-6.9838,15.7224,0,0-1.5701-2.7195-1.5701-2.7195,5.7026-.2427,11.4052-.2467,17.1077-.0047l-1.5742,2.7266c-2.537-4.8898-4.5405-10.628-6.9797-15.7247h0ZM80,105.6518c3.9118,5.0419,8.4795,10.9735,11.769,16.4973-7.809.4127-15.7209.4075-23.5298-.0049,3.2809-5.5076,7.8618-11.4647,11.7609-16.4924h0Z"/>
    <path class="uuid-7093d13d-3421-4e83-b281-7e4601f65ef4" d="M71.446,111.2202c-18.7405,2.008-40.3337-11.2955-40.3886-31.7613.047-20.466,21.6479-33.7818,40.3887-31.7605-17.3173,1.3656-36.1779,13.0248-36.3913,31.7609.2095,18.7405,19.0676,30.4014,36.3912,31.7609h0Z"/>
    <path class="uuid-a32a10a7-50ca-4337-9a13-dfb587d10115" d="M88.554,47.6982c18.7405-2.008,40.3337,11.2955,40.3886,31.7613-.047,20.466-21.6479,33.7818-40.3887,31.7605,17.3173-1.3656,36.1779-13.0248,36.3913-31.7609-.2095-18.7405-19.0676-30.4014-36.3912-31.7609h0Z"/>
    <path class="uuid-bfddfc94-76a6-434a-b8c5-d4cc56c3bef3" d="M80,53.2666c.8332,4.3654,1.2481,8.7309,1.5672,13.0963.2934,4.3654.4299,8.7309.4322,13.0963.0032,4.3654-.1337,8.7309-.4268,13.0963-.3168,4.3654-.7347,8.7309-1.5726,13.0963-.8379-4.3654-1.2558-8.7309-1.5726-13.0963-.293-4.3654-.43-8.7309-.4268-13.0963.0023-4.3654.1388-8.7309.4322-13.0963.3191-4.3654.734-8.7309,1.5672-13.0963Z"/>
  </g>
  <g>
    <circle class="uuid-32e3d128-8eba-4ef0-bcdf-873cc152cb33" cx="80" cy="87.2041" r="63.1899"/>
    <path class="uuid-7093d13d-3421-4e83-b281-7e4601f65ef4" d="M15.312,44.9438l1.6416-2.2432c.9414-1.2866,1.6318-2.1128,2.0732-2.4795.6289-.5278,1.3389-.8154,2.1299-.8633.792-.0479,1.5596.2007,2.3047.7461.751.5493,1.2246,1.2012,1.4189,1.9556.1973.7549.123,1.5435-.2197,2.3662-.251.6001-.8887,1.5991-1.9111,2.9976l-.5879.8047,5.2363,3.8315-.8232,1.1255-11.2627-8.2412ZM17.2378,44.625l3.8203,2.7954,1.4189-1.8892c.5635-.7705.9062-1.3862,1.0273-1.8457.1221-.4595.1006-.9062-.0645-1.3398-.1631-.4331-.4385-.7915-.8262-1.0757-.377-.2754-.7959-.4258-1.2598-.4512-.4629-.0249-.8818.0815-1.2588.3188s-.8447.7363-1.4004,1.4966l-1.457,1.9907Z"/>
    <path class="uuid-7093d13d-3421-4e83-b281-7e4601f65ef4" d="M40.0259,33.7764l1.2344-.271c.1836.7886.2344,1.5068.1514,2.1548-.083.6489-.2812,1.2549-.5918,1.8188-.3125.5645-.7578,1.0903-1.3398,1.5796-1.2881,1.0845-2.6514,1.5098-4.0879,1.2769-1.4375-.2334-2.6035-.8818-3.5-1.9468-.8428-1.002-1.2871-2.1533-1.3301-3.4546-.0596-1.6533.5645-3.0298,1.8711-4.1309,1.3477-1.1328,2.8535-1.5273,4.5156-1.1826,1.1787.2397,2.2266.896,3.1436,1.9668l-7.1055,5.98c.791.9009,1.7168,1.4062,2.7783,1.5156,1.0596.1099,2.0068-.186,2.8398-.8872.4023-.3384.7344-.7373.9971-1.1973s.4307-.918.502-1.3735.0459-1.0723-.0781-1.8486ZM38.2358,31.6494c-.5918-.4277-1.1533-.6948-1.6855-.8008s-1.0947-.0786-1.6885.0815c-.5928.1602-1.124.438-1.5947.833-.7754.6528-1.2324,1.4629-1.3691,2.4302-.1016.7056.0488,1.5088.4512,2.4097l5.8867-4.9536Z"/>
    <path class="uuid-7093d13d-3421-4e83-b281-7e4601f65ef4" d="M42.8589,23.7354l1.1875-.6548.7275,1.3218c.0674-.7163.2275-1.3115.4785-1.7861.252-.4736.5908-.8281,1.0186-1.0635.3203-.1768.7207-.2632,1.1992-.2598l-.0674,1.3145c-.3018.0293-.5352.0894-.7021.1812-.3867.2134-.6729.5786-.8584,1.0957-.1846.5166-.1855,1.1621-.0049,1.9355.1406.5957.6406,1.6763,1.5049,3.2441l1.6846,3.0581-1.1895.6543-4.9785-9.041Z"/>
    <path class="uuid-7093d13d-3421-4e83-b281-7e4601f65ef4" d="M51.7534,14.7456c.2803-.1104.5605-.1035.8389.0186.2764.123.4707.3252.5811.6079.1094.2769.1025.5547-.0195.8325-.1211.2783-.3223.4727-.6035.5825-.2754.1074-.5527.1006-.8301-.022s-.4707-.3223-.5791-.5991c-.1104-.2827-.1045-.563.0156-.8413.1221-.2783.3213-.4717.5967-.5791ZM52.6851,18.9448l1.2363-.4834,3.7559,9.6143-1.2363.4829-3.7559-9.6138Z"/>
    <path class="uuid-7093d13d-3421-4e83-b281-7e4601f65ef4" d="M66.1792,14.7153c1.5625-.2983,2.9639.02,4.207.9546,1.1309.8525,1.832,1.9844,2.1006,3.394.2705,1.417.0137,2.749-.7695,3.9971-.7842,1.2471-1.9521,2.0195-3.501,2.3154-1.5557.2969-2.9287.0103-4.1172-.8604-1.1885-.8711-1.9189-2.0142-2.1895-3.4312-.2676-1.4038-.0342-2.7109.7021-3.9204.8096-1.3325,1.999-2.1494,3.5674-2.4492ZM66.4185,15.9927c-1.084.208-1.9404.7871-2.5664,1.7373s-.8311,1.9932-.6133,3.1304c.1406.7334.4482,1.3823.9248,1.9482.4756.5659,1.0498.9634,1.7197,1.1924.6709.229,1.3682.2744,2.0918.1367.7227-.1382,1.3535-.438,1.8916-.8979.54-.46.9258-1.041,1.1611-1.7427.2334-.7012.2812-1.4185.1406-2.1519-.2158-1.1367-.793-2.0312-1.7295-2.6836-.9346-.6514-1.9414-.874-3.0205-.6689Z"/>
    <path class="uuid-7093d13d-3421-4e83-b281-7e4601f65ef4" d="M90.1929,10.2075l-.9521,14.2749-1.3057-.0874.1182-1.7695c-.6006.6377-1.2568,1.105-1.9717,1.3989-.7129.2949-1.4805.415-2.2998.3599-1.458-.0967-2.668-.708-3.6289-1.8345-.9609-1.1255-1.3926-2.4463-1.29-3.9604.0977-1.4834.7041-2.7168,1.8154-3.7012,1.1113-.9839,2.3994-1.4277,3.8633-1.3301.8447.0562,1.5986.2871,2.2588.6924s1.2256.9849,1.6963,1.7393l.3906-5.8691,1.3057.0869ZM84.5649,14.8428c-.7383-.0493-1.4307.0869-2.0791.4077-.6475.3208-1.1777.7969-1.5898,1.4282-.4141.6304-.6445,1.312-.6924,2.0425-.0488.7251.0908,1.4316.418,2.1177.3281.687.793,1.2354,1.3965,1.6455.6025.4106,1.2627.6396,1.9824.6885.7236.0479,1.4229-.0889,2.0977-.4116.6729-.3223,1.2051-.7837,1.5967-1.3838.3926-.6011.6133-1.292.665-2.0737.0801-1.1914-.2451-2.2134-.9775-3.0664-.7314-.853-1.6699-1.3179-2.8174-1.3945Z"/>
    <path class="uuid-7093d13d-3421-4e83-b281-7e4601f65ef4" d="M97.731,15.8589l1.2861.3306-2.5723,9.9966-1.2861-.3315,2.5723-9.9956ZM99.4282,11.9072c.2939.0752.5166.2437.6709.5054.1543.2612.1934.5396.1172.833-.0752.2881-.2422.5093-.502.6646-.2617.1548-.5391.1943-.832.1191-.2861-.0737-.5059-.2417-.6602-.5034-.1523-.2612-.1934-.5361-.1191-.8242.0762-.2939.2441-.5181.5049-.6729.2607-.1553.5342-.1958.8203-.1216Z"/>
    <path class="uuid-7093d13d-3421-4e83-b281-7e4601f65ef4" d="M110.6714,21.5601l-1.1289.4844c-.3906-.9097-.8975-1.4956-1.5234-1.7578-.3975-.166-.793-.1772-1.1865-.0337-.3936.1445-.6631.3911-.8096.7412-.1309.3091-.1367.6528-.0195,1.0308.1143.3838.4648.9248,1.0527,1.623.7148.854,1.1436,1.5684,1.2881,2.1426.1357.5781.0879,1.1445-.1436,1.6987-.3262.7817-.8779,1.3296-1.6553,1.6421-.7754.3125-1.5762.2969-2.3994-.0474-.5498-.23-1.0244-.5688-1.4238-1.0171s-.6748-.9507-.8262-1.5078l1.1357-.5532c.3311.9683.8467,1.5986,1.5479,1.8921.4912.2056.9756.2227,1.4531.0522.4766-.1709.8047-.4692.9824-.895.1465-.3501.1631-.71.0498-1.0801-.1162-.3643-.4893-.9175-1.1191-1.6606-.6748-.8022-1.0771-1.4849-1.2061-2.0469-.1289-.561-.0771-1.1187.1543-1.6733.3027-.7231.8008-1.2217,1.4941-1.4927.6943-.272,1.418-.251,2.1729.0649.876.3667,1.5801,1.1641,2.1104,2.3936Z"/>
    <path class="uuid-7093d13d-3421-4e83-b281-7e4601f65ef4" d="M118.3335,23.9927l1.0576.8022-1.0771,1.4214c.7656-.2451,1.4336-.3408,2.0059-.2881.7803.084,1.4648.3491,2.0547.7979.3984.3018.7178.6675.957,1.0947.2393.4282.375.8584.4043,1.29s-.0557.9526-.2559,1.5625c.8418-.3779,1.6523-.5342,2.4346-.4688.7822.0664,1.4775.3291,2.085.791.5684.4316.9609.9551,1.1768,1.5723.2178.6177.2363,1.2632.0576,1.937-.1797.6738-.6582,1.5254-1.4385,2.5527l-3.4072,4.4888-1.0801-.8203,3.4062-4.4883c.6699-.8818,1.0664-1.5356,1.1914-1.9609.125-.4248.1123-.8535-.0391-1.2856s-.4365-.8086-.8584-1.1284c-.5127-.3892-1.0947-.5933-1.749-.6128-.6543-.02-1.2705.1475-1.8477.5029-.5781.355-1.3145,1.1216-2.209,2.3008l-2.4443,3.2192-1.0586-.8032,3.1963-4.2085c.752-.9932,1.2031-1.7134,1.3486-2.1621s.1475-.8975.002-1.3447c-.1445-.4473-.4287-.8311-.8525-1.1523-.4893-.3711-1.0576-.5713-1.707-.5991-.6494-.0288-1.2646.1289-1.8477.4731-.582.3438-1.2637,1.0298-2.0439,2.0571l-2.6445,3.4834-1.0576-.8032,6.2402-8.2207Z"/>
    <path class="uuid-7093d13d-3421-4e83-b281-7e4601f65ef4" d="M139.5688,43.6743c.9375,1.2842,1.25,2.6875.9375,4.2109-.2871,1.3867-1.0098,2.5034-2.1709,3.3506-1.1631.8506-2.4775,1.1885-3.9404,1.0132-1.4619-.1748-2.6602-.8989-3.5908-2.1733-.9346-1.2783-1.2627-2.6416-.9824-4.0889.2773-1.4473.998-2.5957,2.1631-3.4463,1.1543-.8433,2.4365-1.1904,3.8447-1.0425,1.5508.1616,2.7969.8872,3.7393,2.1763ZM138.5161,44.4375c-.6514-.8921-1.54-1.418-2.667-1.5771-1.127-.1597-2.1582.1021-3.0918.7852-.6035.4399-1.0586.9961-1.3652,1.6689-.3076.6724-.4219,1.3613-.3428,2.0654.0801.7041.3359,1.353.7715,1.9478.4336.5947.9746,1.0371,1.6211,1.3276.6465.2896,1.3369.3906,2.0713.3022.7354-.0889,1.4033-.3525,2.0059-.793.9336-.6831,1.4961-1.5859,1.6855-2.7109.1885-1.1245-.04-2.1299-.6885-3.0161Z"/>
  </g>
  <g>
    <circle class="uuid-32e3d128-8eba-4ef0-bcdf-873cc152cb33" cx="80" cy="87.2041" r="63.1899"/>
    <path class="uuid-a32a10a7-50ca-4337-9a13-dfb587d10115" d="M40.0156,136.4629l7.8242-11.5562,2.3965,1.6221c1.7285,1.1704,2.8877,2.1582,3.4805,2.9639.8545,1.1519,1.2695,2.4253,1.2451,3.8218s-.4912,2.7651-1.3994,4.1055c-.7842,1.1577-1.7227,2.0068-2.8184,2.5479-1.0967.5415-2.1855.751-3.2686.6289-1.082-.1211-2.3438-.6694-3.7842-1.645l-3.6758-2.4888ZM41.8633,136.1211l1.335.9038c1.5967,1.0815,2.7725,1.7319,3.5244,1.9517,1.0605.3057,2.0889.2598,3.085-.1387.9951-.3984,1.8525-1.1284,2.5713-2.1909.7549-1.1147,1.1289-2.25,1.125-3.4048-.0049-1.1553-.3896-2.2061-1.1543-3.1514-.5742-.709-1.6914-1.626-3.3506-2.7495l-.8184-.5532-6.3174,9.333Z"/>
    <path class="uuid-a32a10a7-50ca-4337-9a13-dfb587d10115" d="M61,136.5576l1.2461.4604-3.5742,9.6836-1.2471-.4604,3.5752-9.6836ZM63.0908,132.7988c.2822.1045.4883.2949.6133.5703.1279.2764.1377.5566.0342.8418-.1045.2783-.293.4819-.5684.6089-.2754.1279-.5547.1396-.8389.0352-.2764-.1025-.4795-.292-.6064-.5679-.126-.2759-.1377-.5527-.0352-.832.1045-.2847.2959-.4912.5713-.6187s.5518-.1401.8301-.0376Z"/>
    <path class="uuid-a32a10a7-50ca-4337-9a13-dfb587d10115" d="M73.373,140.9009l-1.0029.7095c-.5693-.8091-1.1875-1.2764-1.8535-1.4023-.4248-.0801-.8145-.0088-1.1689.2144-.3555.2227-.5684.52-.6387.8931-.0625.3301.0039.667.1963,1.0122.1924.3516.6475.8076,1.3682,1.3682.877.687,1.4443,1.2959,1.7061,1.8276.2539.5371.3242,1.1011.2129,1.6914-.1572.8325-.582,1.4824-1.2773,1.9507-.6943.4678-1.4795.6187-2.3564.4531-.5859-.1104-1.1201-.3433-1.6045-.6982s-.8584-.7896-1.1221-1.3022l.9961-.7778c.5244.8779,1.1602,1.3872,1.9082,1.5278.5225.0986,1,.0146,1.4316-.2515.4307-.2661.6895-.626.7734-1.0796.0713-.3735.0127-.728-.1748-1.0664-.1904-.332-.6709-.7959-1.4404-1.3911-.8271-.645-1.3633-1.229-1.6055-1.7515-.2432-.522-.3096-1.0781-.1982-1.6689.1455-.77.5293-1.3604,1.1523-1.7715.6211-.4102,1.334-.54,2.1367-.3882.9336.1753,1.7871.8101,2.5615,1.9014Z"/>
    <path class="uuid-a32a10a7-50ca-4337-9a13-dfb587d10115" d="M88.4912,146.5078l1.1611.5c-.3105.7471-.6895,1.3604-1.1338,1.8389-.4463.4775-.96.8555-1.543,1.1318-.5811.2764-1.252.4443-2.0088.502-1.6787.1299-3.0332-.3193-4.0654-1.3467-1.0312-1.0273-1.6006-2.2344-1.708-3.6221-.0996-1.3047.21-2.4995.9336-3.583.915-1.3774,2.2256-2.1318,3.9307-2.2632,1.7539-.1353,3.207.4224,4.3564,1.6714.8174.8828,1.2871,2.0259,1.4082,3.4312l-9.2607.7144c.1172,1.1938.5752,2.144,1.373,2.8511.7979.7075,1.7393,1.0195,2.8242.9355.5244-.04,1.0283-.1704,1.5088-.3911.4814-.2202.8848-.4946,1.209-.8232.3232-.3281.6611-.8438,1.0146-1.5469ZM88.2764,143.7358c-.2305-.6929-.5312-1.2368-.9023-1.6333-.3691-.3965-.8438-.7026-1.4189-.9185-.5752-.2153-1.1689-.2993-1.7812-.2524-1.0107.0776-1.8535.4697-2.5293,1.1748-.4932.5142-.8398,1.2544-1.0391,2.2217l7.6709-.5923Z"/>
    <path class="uuid-a32a10a7-50ca-4337-9a13-dfb587d10115" d="M100.5176,131.8271l.9551.6133c-.3018.4761-.5771.8257-.8271,1.0469-.249.2217-.5352.3965-.8584.5244-.4248.166-.9023.2285-1.4355.187-.4561-.0376-.7432-.0508-.8613-.0386-.1572.0137-.3184.0537-.4834.1187-.2061.0806-.3867.1948-.5439.3408-.1562.147-.3594.4194-.6113.8169l-.9365-.6719c.3086-.7866.8574-1.3359,1.6465-1.6465.376-.1475.875-.2041,1.4922-.1685.5938.0386,1.0332.001,1.3223-.1123.3232-.1274.7041-.4644,1.1416-1.0103ZM95.1621,138.0625l1.2354-.4854.6777,1.7212c.2354-.8535.5879-1.562,1.0605-2.1245.4707-.563,1.0615-.9834,1.7676-1.2607.7168-.2832,1.4268-.3506,2.126-.2051.7002.1465,1.3037.4766,1.8115.9902.5078.5142,1.0186,1.4243,1.5332,2.7314l1.9443,4.9434-1.2363.4863-1.8027-4.5825c-.4346-1.106-.7715-1.8267-1.0088-2.1616-.3926-.5791-.8564-.9492-1.3877-1.1104-.5322-.1611-1.126-.1133-1.7793.144-.748.2935-1.3203.8047-1.7178,1.5312-.3965.7271-.5449,1.4927-.4463,2.2969.0693.5229.3525,1.4175.8506,2.6821l1.3857,3.5229-1.2363.4863-3.7773-9.606Z"/>
    <path class="uuid-a32a10a7-50ca-4337-9a13-dfb587d10115" d="M112.6875,128.4199c1.2461-.9873,2.6357-1.3545,4.1699-1.1016,1.3984.2329,2.541.9116,3.4326,2.0371.8955,1.1304,1.2861,2.4307,1.168,3.8984-.1172,1.4697-.7959,2.6938-2.0312,3.6733-1.2422.9834-2.5918,1.3647-4.0479,1.1421-1.4561-.2212-2.6328-.8975-3.5273-2.0273-.8887-1.1206-1.2861-2.3872-1.1924-3.7998.0996-1.5576.7764-2.8306,2.0283-3.8223ZM113.4902,129.4414c-.8662.6855-1.3564,1.5947-1.4707,2.7271-.1152,1.1323.1855,2.1519.9043,3.0591.4639.585,1.0371,1.0181,1.7217,1.2993.6846.2808,1.376.3677,2.0771.2603.7002-.1064,1.3389-.3896,1.916-.8462.5771-.457.998-1.0146,1.2627-1.6719.2637-.6577.3389-1.3511.2217-2.0815s-.4072-1.3882-.8711-1.9731c-.7188-.9072-1.6426-1.4336-2.7744-1.5781-1.1299-.145-2.127.1235-2.9873.8052Z"/>
  </g>
</svg>