<?xml version="1.0" encoding="UTF-8"?>
<svg id="uuid-d4d65505-5858-427a-9e43-18a1ac8b6440" data-name="Capa 1" xmlns="http://www.w3.org/2000/svg" width="160" height="160" viewBox="0 0 160 160">
  <defs>
    <style>
      .uuid-2026baae-07ef-47db-9d20-ec43df1bb64e {
        fill: none;
      }
    </style>
  </defs>
  <g>
    <path d="M80,53.7618c-3.905-5.0429-8.4717-10.9724-11.7607-16.4926,7.8089-.412,15.7208-.4177,23.5298-.0046-3.2814,5.5113-7.8632,11.4704-11.7691,16.4972h0ZM80,53.7618c2.439-5.0959,4.4429-10.8356,6.9797-15.7247,0,0,1.5742,2.7266,1.5742,2.7266-5.7026.242-11.4052.238-17.1077-.0047l1.5701-2.7195c2.5352,4.8897,4.5427,10.6277,6.9838,15.7224h0Z"/>
    <path d="M80,106.147c-2.4409,5.0938-4.4488,10.8334-6.9838,15.7224,0,0-1.5701-2.7195-1.5701-2.7195,5.7026-.2427,11.4052-.2467,17.1077-.0047l-1.5742,2.7266c-2.537-4.8898-4.5405-10.6279-6.9797-15.7247h0ZM80,106.147c3.9118,5.0419,8.4795,10.9735,11.769,16.4973-7.809.4128-15.7209.4075-23.5298-.0049,3.2809-5.5076,7.8618-11.4647,11.7609-16.4924h0Z"/>
    <path d="M71.446,111.7154c-18.7405,2.008-40.3337-11.2955-40.3886-31.7613.047-20.4661,21.6479-33.7818,40.3887-31.7605-17.3173,1.3656-36.1779,13.0248-36.3913,31.7609.2095,18.7405,19.0676,30.4014,36.3912,31.7609h0Z"/>
    <path d="M88.554,48.1934c18.7405-2.008,40.3337,11.2955,40.3886,31.7613-.047,20.466-21.6479,33.7818-40.3887,31.7605,17.3173-1.3656,36.1779-13.0248,36.3913-31.7609-.2095-18.7405-19.0676-30.4014-36.3912-31.7609h0Z"/>
    <path d="M80,53.7618c1.58,8.6827,1.9479,17.417,1.9995,26.1926-.0439,8.7764-.4104,17.51-1.9994,26.1926-1.5891-8.6822-1.9557-17.4166-1.9995-26.1926.0516-8.7759.4194-17.5095,1.9995-26.1926h0Z"/>
  </g>
  <g>
    <circle class="uuid-2026baae-07ef-47db-9d20-ec43df1bb64e" cx="80" cy="87.6993" r="63.1899"/>
    <path d="M15.312,45.4395l1.6416-2.2432c.9414-1.2871,1.6318-2.1133,2.0732-2.4795.6289-.5283,1.3389-.8154,2.1299-.8633.792-.0479,1.5596.2002,2.3047.7461.751.5488,1.2246,1.2012,1.4189,1.9551.1973.7549.123,1.5439-.2197,2.3662-.251.6006-.8887,1.5996-1.9111,2.998l-.5879.8047,5.2363,3.8311-.8232,1.126-11.2627-8.2412ZM17.2378,45.1201l3.8203,2.7959,1.4189-1.8896c.5635-.7705.9062-1.3857,1.0273-1.8457.1221-.459.1006-.9062-.0645-1.3398-.1631-.4326-.4385-.791-.8262-1.0752-.377-.2754-.7959-.4258-1.2598-.4512-.4629-.0254-.8818.0811-1.2588.3184s-.8447.7363-1.4004,1.4971l-1.457,1.9902Z"/>
    <path d="M40.0259,34.2715l1.2344-.2705c.1836.7881.2344,1.5068.1514,2.1543-.083.6494-.2812,1.2549-.5918,1.8193-.3125.5645-.7578,1.0898-1.3398,1.5791-1.2881,1.085-2.6514,1.5098-4.0879,1.2773-1.4375-.2334-2.6035-.8818-3.5-1.9473-.8428-1.002-1.2871-2.1533-1.3301-3.4541-.0596-1.6533.5645-3.0303,1.8711-4.1309,1.3477-1.1328,2.8535-1.5273,4.5156-1.1826,1.1787.2393,2.2266.8955,3.1436,1.9668l-7.1055,5.9795c.791.9014,1.7168,1.4062,2.7783,1.5156,1.0596.1104,2.0068-.1855,2.8398-.8867.4023-.3389.7344-.7373.9971-1.1973s.4307-.918.502-1.374c.0713-.4551.0459-1.0723-.0781-1.8486ZM38.2358,32.1445c-.5918-.4277-1.1533-.6943-1.6855-.8008-.5322-.1055-1.0947-.0781-1.6885.082-.5928.1602-1.124.4375-1.5947.833-.7754.6523-1.2324,1.4629-1.3691,2.4297-.1016.7061.0488,1.5088.4512,2.4102l5.8867-4.9541Z"/>
    <path d="M42.8589,24.2305l1.1875-.6543.7275,1.3213c.0674-.7158.2275-1.3115.4785-1.7861.252-.4736.5908-.8281,1.0186-1.0635.3203-.1768.7207-.2627,1.1992-.2598l-.0674,1.3145c-.3018.0293-.5352.0898-.7021.1816-.3867.2129-.6729.5781-.8584,1.0957-.1846.5166-.1855,1.1621-.0049,1.9355.1406.5957.6406,1.6758,1.5049,3.2441l1.6846,3.0576-1.1895.6543-4.9785-9.041Z"/>
    <path d="M51.7534,15.2412c.2803-.1104.5605-.1035.8389.0186.2764.123.4707.3252.5811.6074.1094.2773.1025.5547-.0195.833-.1211.2783-.3223.4727-.6035.582-.2754.1074-.5527.1006-.8301-.0215-.2773-.123-.4707-.3223-.5791-.5996-.1104-.2822-.1045-.5625.0156-.8408.1221-.2783.3213-.4717.5967-.5791ZM52.6851,19.4404l1.2363-.4834,3.7559,9.6143-1.2363.4824-3.7559-9.6133Z"/>
    <path d="M66.1792,15.2109c1.5625-.2988,2.9639.0195,4.207.9541,1.1309.8525,1.832,1.9844,2.1006,3.3945.2705,1.417.0137,2.749-.7695,3.9971-.7842,1.2471-1.9521,2.0195-3.501,2.3154-1.5557.2969-2.9287.0098-4.1172-.8604-1.1885-.8711-1.9189-2.0146-2.1895-3.4316-.2676-1.4033-.0342-2.7109.7021-3.9199.8096-1.333,1.999-2.1494,3.5674-2.4492ZM66.4185,16.4883c-1.084.208-1.9404.7871-2.5664,1.7373s-.8311,1.9932-.6133,3.1299c.1406.7334.4482,1.3828.9248,1.9482.4756.5664,1.0498.9639,1.7197,1.1924.6709.2295,1.3682.2744,2.0918.1367.7227-.1377,1.3535-.4375,1.8916-.8975.54-.46.9258-1.041,1.1611-1.7432.2334-.7012.2812-1.418.1406-2.1514-.2158-1.1367-.793-2.0312-1.7295-2.6836-.9346-.6514-1.9414-.874-3.0205-.6689Z"/>
    <path d="M90.1929,10.7031l-.9521,14.2744-1.3057-.0869.1182-1.7695c-.6006.6377-1.2568,1.1045-1.9717,1.3984-.7129.2949-1.4805.415-2.2998.3604-1.458-.0967-2.668-.708-3.6289-1.835-.9609-1.125-1.3926-2.4463-1.29-3.96.0977-1.4834.7041-2.7168,1.8154-3.7012s2.3994-1.4277,3.8633-1.3301c.8447.0557,1.5986.2871,2.2588.6924s1.2256.9844,1.6963,1.7393l.3906-5.8691,1.3057.0869ZM84.5649,15.3379c-.7383-.0488-1.4307.0869-2.0791.4082-.6475.3203-1.1777.7969-1.5898,1.4277-.4141.6309-.6445,1.3125-.6924,2.043-.0488.7246.0908,1.4316.418,2.1172.3281.6875.793,1.2354,1.3965,1.6455.6025.4111,1.2627.6396,1.9824.6885.7236.0479,1.4229-.0889,2.0977-.4111.6729-.3223,1.2051-.7842,1.5967-1.3838.3926-.6016.6133-1.292.665-2.0742.0801-1.1914-.2451-2.2129-.9775-3.0664-.7314-.8525-1.6699-1.3174-2.8174-1.3945Z"/>
    <path d="M97.731,16.3545l1.2861.3301-2.5723,9.9971-1.2861-.332,2.5723-9.9951ZM99.4282,12.4023c.2939.0752.5166.2441.6709.5059.1543.2607.1934.5391.1172.833-.0752.2881-.2422.5088-.502.6641-.2617.1553-.5391.1943-.832.1191-.2861-.0732-.5059-.2412-.6602-.5029-.1523-.2617-.1934-.5361-.1191-.8242.0762-.2939.2441-.5186.5049-.6729.2607-.1553.5342-.1963.8203-.1221Z"/>
    <path d="M110.6714,22.0557l-1.1289.4844c-.3906-.9102-.8975-1.4961-1.5234-1.7578-.3975-.166-.793-.1777-1.1865-.0342-.3936.1445-.6631.3916-.8096.7412-.1309.3096-.1367.6533-.0195,1.0312.1143.3838.4648.9248,1.0527,1.623.7148.8535,1.1436,1.5684,1.2881,2.1426.1357.5781.0879,1.1445-.1436,1.6982-.3262.7822-.8779,1.3301-1.6553,1.6426-.7754.3125-1.5762.2969-2.3994-.0479-.5498-.2295-1.0244-.5684-1.4238-1.0166s-.6748-.9512-.8262-1.5078l1.1357-.5537c.3311.9688.8467,1.5986,1.5479,1.8926.4912.2051.9756.2227,1.4531.0518.4766-.1709.8047-.4688.9824-.8945.1465-.3506.1631-.71.0498-1.0801-.1162-.3643-.4893-.918-1.1191-1.6611-.6748-.8018-1.0771-1.4844-1.2061-2.0469-.1289-.5605-.0771-1.1182.1543-1.6729.3027-.7236.8008-1.2217,1.4941-1.4932.6943-.2715,1.418-.251,2.1729.0654.876.3662,1.5801,1.1641,2.1104,2.3936Z"/>
    <path d="M118.3335,24.4883l1.0576.8018-1.0771,1.4219c.7656-.2451,1.4336-.3408,2.0059-.2881.7803.084,1.4648.3486,2.0547.7979.3984.3018.7178.667.957,1.0947s.375.8584.4043,1.29-.0557.9521-.2559,1.5625c.8418-.3779,1.6523-.5342,2.4346-.4688.7822.0664,1.4775.3291,2.085.791.5684.4316.9609.9551,1.1768,1.5723.2178.6172.2363,1.2627.0576,1.9365-.1797.6738-.6582,1.5254-1.4385,2.5527l-3.4072,4.4893-1.0801-.8203,3.4062-4.4883c.6699-.8818,1.0664-1.5361,1.1914-1.9609s.1123-.8535-.0391-1.2861c-.1514-.4316-.4365-.8086-.8584-1.1279-.5127-.3896-1.0947-.5938-1.749-.6133s-1.2705.1475-1.8477.5029c-.5781.3555-1.3145,1.1221-2.209,2.3008l-2.4443,3.2197-1.0586-.8037,3.1963-4.208c.752-.9932,1.2031-1.7139,1.3486-2.1621.1455-.4492.1475-.8975.002-1.3447-.1445-.4473-.4287-.8311-.8525-1.1523-.4893-.3711-1.0576-.5713-1.707-.5996s-1.2646.1289-1.8477.4736c-.582.3438-1.2637,1.0293-2.0439,2.0566l-2.6445,3.4834-1.0576-.8027,6.2402-8.2207Z"/>
    <path d="M139.5688,44.1699c.9375,1.2842,1.25,2.6875.9375,4.2109-.2871,1.3867-1.0098,2.5029-2.1709,3.3506-1.1631.8506-2.4775,1.1885-3.9404,1.0127-1.4619-.1748-2.6602-.8984-3.5908-2.1729-.9346-1.2783-1.2627-2.6416-.9824-4.0889.2773-1.4473.998-2.5957,2.1631-3.4463,1.1543-.8438,2.4365-1.1904,3.8447-1.043,1.5508.1621,2.7969.8877,3.7393,2.1768ZM138.5161,44.9326c-.6514-.8916-1.54-1.418-2.667-1.5771s-2.1582.1025-3.0918.7852c-.6035.4404-1.0586.9961-1.3652,1.6689-.3076.6729-.4219,1.3613-.3428,2.0654.0801.7041.3359,1.3535.7715,1.9482.4336.5947.9746,1.0371,1.6211,1.3271s1.3369.3906,2.0713.3027c.7354-.0889,1.4033-.3525,2.0059-.793.9336-.6836,1.4961-1.5859,1.6855-2.7109.1885-1.125-.04-2.1299-.6885-3.0166Z"/>
  </g>
  <g>
    <circle class="uuid-2026baae-07ef-47db-9d20-ec43df1bb64e" cx="80" cy="87.6993" r="63.1899"/>
    <path d="M40.0156,136.958l7.8242-11.5557,2.3965,1.6211c1.7285,1.1709,2.8877,2.1582,3.4805,2.9648.8545,1.1514,1.2695,2.4248,1.2451,3.8213s-.4912,2.7646-1.3994,4.1055c-.7842,1.1572-1.7227,2.0068-2.8184,2.5479-1.0967.541-2.1855.751-3.2686.6289-1.082-.1211-2.3438-.6699-3.7842-1.6445l-3.6758-2.4893ZM41.8633,136.6162l1.335.9033c1.5967,1.082,2.7725,1.7324,3.5244,1.9521,1.0605.3057,2.0889.2598,3.085-.1387.9951-.3984,1.8525-1.1279,2.5713-2.1904.7549-1.1152,1.1289-2.25,1.125-3.4053-.0049-1.1553-.3896-2.2061-1.1543-3.1514-.5742-.709-1.6914-1.626-3.3506-2.75l-.8184-.5527-6.3174,9.333Z"/>
    <path d="M61,137.0527l1.2461.4609-3.5742,9.6836-1.2471-.4609,3.5752-9.6836ZM63.0908,133.2939c.2822.1045.4883.2949.6133.5703.1279.2764.1377.5566.0342.8418-.1045.2783-.293.4814-.5684.6084-.2754.1289-.5547.1406-.8389.0352-.2764-.1016-.4795-.291-.6064-.5674-.126-.2764-.1377-.5527-.0352-.832.1045-.2842.2959-.4912.5713-.6182.2754-.1279.5518-.1406.8301-.0381Z"/>
    <path d="M73.373,141.3965l-1.0029.709c-.5693-.8086-1.1875-1.2764-1.8535-1.4023-.4248-.0801-.8145-.0088-1.1689.2148-.3555.2227-.5684.5195-.6387.8926-.0625.3301.0039.667.1963,1.0117.1924.3516.6475.8086,1.3682,1.3691.877.6865,1.4443,1.2949,1.7061,1.8271.2539.5371.3242,1.1006.2129,1.6914-.1572.833-.582,1.4824-1.2773,1.9502-.6943.4688-1.4795.6191-2.3564.4531-.5859-.1094-1.1201-.3428-1.6045-.6973-.4844-.3555-.8584-.79-1.1221-1.3027l.9961-.7773c.5244.877,1.1602,1.3867,1.9082,1.5273.5225.0986,1,.0146,1.4316-.252.4307-.2656.6895-.625.7734-1.0791.0713-.374.0127-.7275-.1748-1.0664-.1904-.332-.6709-.7959-1.4404-1.3916-.8271-.6445-1.3633-1.2285-1.6055-1.751-.2432-.5225-.3096-1.0781-.1982-1.6689.1455-.7695.5293-1.3604,1.1523-1.7715.6211-.4102,1.334-.54,2.1367-.3887.9336.1758,1.7871.8105,2.5615,1.9023Z"/>
    <path d="M88.4912,147.0029l1.1611.5c-.3105.7471-.6895,1.3604-1.1338,1.8389-.4463.4775-.96.8555-1.543,1.1318-.5811.2764-1.252.4443-2.0088.502-1.6787.1299-3.0332-.3193-4.0654-1.3467-1.0312-1.0273-1.6006-2.2344-1.708-3.6221-.0996-1.3047.21-2.499.9336-3.583.915-1.377,2.2256-2.1318,3.9307-2.2637,1.7539-.1348,3.207.4229,4.3564,1.6719.8174.8828,1.2871,2.0254,1.4082,3.4316l-9.2607.7139c.1172,1.1943.5752,2.1436,1.373,2.8506.7979.708,1.7393,1.0195,2.8242.9355.5244-.0391,1.0283-.1699,1.5088-.3906.4814-.2207.8848-.4941,1.209-.8232.3232-.3281.6611-.8438,1.0146-1.5469ZM88.2764,144.2305c-.2305-.6924-.5312-1.2363-.9023-1.6328-.3691-.3965-.8438-.7031-1.4189-.918-.5752-.2158-1.1689-.2998-1.7812-.2529-1.0107.0771-1.8535.4697-2.5293,1.1748-.4932.5137-.8398,1.2539-1.0391,2.2217l7.6709-.5928Z"/>
    <path d="M100.5176,132.3223l.9551.6133c-.3018.4766-.5771.8262-.8271,1.0469-.249.2217-.5352.3965-.8584.5244-.4248.166-.9023.2285-1.4355.1865-.4561-.0371-.7432-.0508-.8613-.0381-.1572.0137-.3184.0537-.4834.1182-.2061.0811-.3867.1953-.5439.3418-.1562.1465-.3594.4189-.6113.8164l-.9365-.6719c.3086-.7871.8574-1.3359,1.6465-1.6465.376-.1475.875-.2041,1.4922-.168.5938.0381,1.0332,0,1.3223-.1133.3232-.127.7041-.4639,1.1416-1.0098ZM95.1621,138.5576l1.2354-.4854.6777,1.7207c.2354-.8535.5879-1.5615,1.0605-2.124.4707-.5635,1.0615-.9834,1.7676-1.2607.7168-.2832,1.4268-.3506,2.126-.2051.7002.1465,1.3037.4766,1.8115.9902s1.0186,1.4238,1.5332,2.7314l1.9443,4.9434-1.2363.4863-1.8027-4.583c-.4346-1.1055-.7715-1.8262-1.0088-2.1611-.3926-.5791-.8564-.9492-1.3877-1.1104-.5322-.1611-1.126-.1133-1.7793.1445-.748.293-1.3203.8047-1.7178,1.5312-.3965.7266-.5449,1.4922-.4463,2.2969.0693.5225.3525,1.417.8506,2.6816l1.3857,3.5234-1.2363.4863-3.7773-9.6064Z"/>
    <path d="M112.6875,128.915c1.2461-.9873,2.6357-1.3545,4.1699-1.1016,1.3984.2334,2.541.9111,3.4326,2.0371.8955,1.1299,1.2861,2.4307,1.168,3.8984-.1172,1.4697-.7959,2.6943-2.0312,3.6729-1.2422.9844-2.5918,1.3652-4.0479,1.1426-1.4561-.2207-2.6328-.8975-3.5273-2.0273-.8887-1.1211-1.2861-2.3867-1.1924-3.7998.0996-1.5576.7764-2.8311,2.0283-3.8223ZM113.4902,129.9365c-.8662.6855-1.3564,1.5947-1.4707,2.7275-.1152,1.1318.1855,2.1514.9043,3.0586.4639.585,1.0371,1.0176,1.7217,1.2988s1.376.3682,2.0771.2607c.7002-.1064,1.3389-.3896,1.916-.8467s.998-1.0137,1.2627-1.6719c.2637-.6572.3389-1.3506.2217-2.0811s-.4072-1.3877-.8711-1.9736c-.7188-.9062-1.6426-1.4336-2.7744-1.5781-1.1299-.1445-2.127.124-2.9873.8057Z"/>
  </g>
</svg>